<svg width="102" height="102" viewBox="0 0 102 102" fill="none" xmlns="http://www.w3.org/2000/svg">
<path d="M75.0155 23.8989C76.7195 22.1951 78.6011 20.8818 78.8496 19.107C80.4471 20.7043 80.0211 30.5012 80.0211 33.6958C80.0211 35.3996 79.0626 40.4045 77.6781 44.2381C76.7475 46.8146 75.8675 50.0949 70.9684 55.6323C69.8678 57.2296 65.4302 62.1919 57.762 67.1329C55.7385 68.8367 45.5497 73.3092 38.698 75.652C37.065 76.2554 32.6426 77.1428 30.2569 78.8466C28.9789 79.4855 27.0159 81.8429 25.8111 84.9164C25.519 85.6618 24.8589 88.7375 25.1721 90.7732C25.8111 94.9262 25.5981 94.3938 26.6632 96.63C26.9674 97.269 28.1542 98.7598 29.4322 100.144C29.6889 100.422 29.8681 100.619 29.9899 100.753C30.0633 100.783 30.0713 100.783 30.0713 100.783C30.2042 100.996 30.3531 101.153 29.9899 100.753C29.8724 100.704 29.5875 100.578 28.8997 100.251C28.4697 100.046 25.4916 97.8014 25.1721 97.3754C23.4148 95.0327 22.8291 93.2224 22.5095 92.1576C22.19 91.0927 21.6575 89.8148 21.125 86.1942C20.5925 82.5737 20.5925 81.7218 20.5925 80.1244C20.5925 78.5271 21.5155 74.4096 21.977 72.7768C22.1545 72.3863 22.7439 70.647 23.2551 69.3692C24.5331 66.1746 26.0242 63.6189 27.6217 61.8086C29.0313 60.2112 30.1996 58.963 30.8168 58.2945C32.0948 56.9101 34.0119 54.3544 38.1655 51.9052C39.55 51.0888 39.124 51.2663 41.3606 50.0949C43.1711 49.1467 43.9166 48.8171 46.5792 47.8587L47.5377 47.3262C45.9402 47.6457 42.8516 47.8587 40.7216 48.4976C38.698 48.9235 34.2249 51.2663 32.2013 52.6506L29.9648 54.2479C29.9648 54.2479 28.2607 55.7388 27.1957 56.8036C23.7752 60.2236 22.4741 62.1635 21.2315 64.2578L20.273 65.7486C19.9535 66.0681 17.9299 70.1146 17.9299 73.5222C17.6743 73.6074 17.7169 73.3447 17.6104 72.7768C17.5394 72.1024 17.6104 73.2027 17.6104 70.647C17.6104 66.9381 18.5241 62.6605 19.421 60.5307C21.977 54.4609 24.0809 52.2546 25.5981 50.5209C27.0892 48.8171 27.4286 48.3442 29.9648 45.9419C31.9883 44.0251 35.9289 41.4694 38.059 40.4045C40.189 39.3397 39.8695 39.7656 55.7384 33.6958C71.6074 27.626 73.3114 25.6027 75.0155 23.8989Z" fill="#74B73A"/>
<path d="M78.8496 19.107C78.6011 20.8818 76.7195 22.1951 75.0155 23.8989C73.3114 25.6027 71.6074 27.626 55.7384 33.6958C39.8695 39.7656 40.189 39.3397 38.059 40.4045C35.9289 41.4694 31.9883 44.0251 29.9648 45.9419C27.4286 48.3442 27.0892 48.8171 25.5981 50.5209C24.0809 52.2546 21.977 54.4609 19.421 60.5307C18.5241 62.6605 17.6104 66.9381 17.6104 70.647C17.6104 73.2027 17.5394 72.1024 17.6104 72.7768C17.7169 73.3447 17.6743 73.6074 17.9299 73.5222C17.9299 70.1146 19.9535 66.0681 20.273 65.7486L21.2315 64.2578C22.4741 62.1635 23.7752 60.2236 27.1957 56.8036C28.2607 55.7388 29.9648 54.2479 29.9648 54.2479L32.2013 52.6506C34.2249 51.2663 38.698 48.9235 40.7216 48.4976C42.8516 47.8587 45.9402 47.6457 47.5377 47.3262L46.5792 47.8587C43.9166 48.8171 43.1711 49.1467 41.3606 50.0949C39.124 51.2663 39.55 51.0888 38.1655 51.9052C34.0119 54.3544 32.0948 56.9101 30.8168 58.2945C30.1996 58.963 29.0313 60.2112 27.6217 61.8086C26.0242 63.6189 24.5331 66.1746 23.2551 69.3692C22.7439 70.647 22.1545 72.3863 21.977 72.7768C21.5155 74.4096 20.5925 78.5271 20.5925 80.1244C20.5925 81.7218 20.5925 82.5737 21.125 86.1942C21.6575 89.8148 22.19 91.0927 22.5095 92.1576C22.8291 93.2224 23.4148 95.0327 25.1721 97.3754C25.4916 97.8014 28.4697 100.046 28.8997 100.251C30.0174 100.783 30.0713 100.783 30.0713 100.783C30.2488 101.067 30.4547 101.252 29.4322 100.144C28.1542 98.7598 26.9674 97.269 26.6632 96.63C25.5981 94.3938 25.8111 94.9262 25.1721 90.7732C24.8589 88.7375 25.519 85.6618 25.8111 84.9164C27.0159 81.8429 28.9789 79.4855 30.2569 78.8466C32.6426 77.1428 37.065 76.2554 38.698 75.652C45.5497 73.3092 55.7385 68.8367 57.762 67.1329C65.4302 62.1919 69.8678 57.2296 70.9684 55.6323C75.8675 50.0949 76.7475 46.8146 77.6781 44.2381C79.0626 40.4045 80.0211 35.3996 80.0211 33.6958C80.0211 30.5012 80.4471 20.7043 78.8496 19.107Z" stroke="#DBDBDB" stroke-opacity="0.1"/>
<path d="M3.41368 27.6355H27.8321C28.9559 27.6355 29.859 26.71 29.8315 25.5866L29.2803 3.0489C29.2528 1.92552 30.156 1 31.2797 1L70.3355 1C71.4401 1 72.3355 1.89442 72.3355 2.99899V21.6817C72.3355 21.6817 70.5085 24.0073 66.0817 26.338C65.3996 26.6971 64.577 27.2092 63.8929 27.5644C60.8343 29.1529 51.9245 33.054 47.4712 34.4249C42.1137 36.0742 38.0251 38.4355 36.6663 39.0997C36.6297 39.1175 36.6013 39.132 36.5659 39.1522C35.8118 39.5819 26.251 45.1332 19.8925 53.9576C14.5939 61.3111 15.2237 67.2 15.2237 69.5211H3.02085C1.90817 69.5211 1.00942 68.613 1.02095 67.5004L1.41379 29.6147C1.42516 28.5183 2.3172 27.6355 3.41368 27.6355Z" fill="#1E96D5" stroke="#DBDBDB" stroke-opacity="0.1"/>
<path d="M31.619 79.5486C31.2754 79.6808 30.4106 80.65 29.7777 81.4111C29.4895 81.7577 29.3389 82.1963 29.3389 82.6471V95.0162C29.3389 96.1114 30.2197 97.0028 31.3148 97.016L70.6372 97.4901C71.7511 97.5035 72.6613 96.6042 72.6613 95.4902V71.4918C72.6613 70.3988 73.5389 69.5082 74.6319 69.4921L99.0296 69.1323C100.123 69.1162 101 68.2256 101 67.1326V30.2622C101 29.1576 100.105 28.2622 99.0001 28.2622H82.7591V40.6515C82.7591 40.7875 82.746 40.9135 82.7168 41.0463C82.4235 42.3797 80.6092 50.1817 77.4388 54.3754C73.9643 58.9714 73.0957 59.0758 69.9469 61.7916C66.4952 64.7686 59.6203 69.1827 57.123 70.5405C44.5556 77.374 32.1619 79.3397 31.619 79.5486Z" fill="#FF9457" stroke="#DBDBDB" stroke-opacity="0.1"/>
</svg>
